<svg xmlns="http://www.w3.org/2000/svg">
  <symbol id="icon-arrow-down" viewBox="0 0 24 24" fill="none" stroke="currentColor" stroke-width="2" stroke-linecap="round" stroke-linejoin="round"><path d="M12 5v14" />
  <path d="m19 12-7 7-7-7" /></symbol>
  <symbol id="icon-corner-up-left" viewBox="0 0 24 24" fill="none" stroke="currentColor" stroke-width="2" stroke-linecap="round" stroke-linejoin="round"><path d="M20 20v-7a4 4 0 0 0-4-4H4" />
  <path d="M9 14 4 9l5-5" /></symbol>
  <symbol id="icon-corner-up-right" viewBox="0 0 24 24" fill="none" stroke="currentColor" stroke-width="2" stroke-linecap="round" stroke-linejoin="round"><path d="m15 14 5-5-5-5" />
  <path d="M4 20v-7a4 4 0 0 1 4-4h12" /></symbol>
  <symbol id="icon-ellipsis" viewBox="0 0 24 24" fill="none" stroke="currentColor" stroke-width="2" stroke-linecap="round" stroke-linejoin="round"><circle cx="12" cy="12" r="1" />
  <circle cx="19" cy="12" r="1" />
  <circle cx="5" cy="12" r="1" /></symbol>
  <symbol id="icon-rotate-ccw" viewBox="0 0 24 24" fill="none" stroke="currentColor" stroke-width="2" stroke-linecap="round" stroke-linejoin="round"><path d="M3 12a9 9 0 1 0 9-9 9.75 9.75 0 0 0-6.74 2.74L3 8" />
  <path d="M3 3v5h5" /></symbol>
  <symbol id="icon-x" viewBox="0 0 24 24" fill="none" stroke="currentColor" stroke-width="2" stroke-linecap="round" stroke-linejoin="round"><path d="M18 6 6 18" />
  <path d="m6 6 12 12" /></symbol>
</svg>
